<svg width="43" height="26" viewBox="0 0 43 26" fill="none" xmlns="http://www.w3.org/2000/svg">
<path d="M10.1462 6.78116H18.2564V7.42728H10.8896V12.2898H17.8171V12.9358H10.8896V18.2744H18.3408V18.9204H10.1462V6.78116ZM18.983 6.78116H19.8447L23.6632 12.1197L27.5662 6.78108L32.8749 0L24.1532 12.6809L28.6476 18.9204H27.752L23.6632 13.2419L19.5574 18.9204H18.6788L23.207 12.6808L18.9829 6.78116H18.983ZM28.9686 7.42728V6.78108H38.2109V7.4272H33.953V18.9204H33.2095V7.42728H28.9686ZM0 6.78108H0.929287L13.7436 26L8.44816 18.9204L0.777191 7.69925L0.74343 18.9205H0V6.78108ZM38.136 18.0793C37.984 18.0793 37.8702 17.9614 37.8702 17.8089C37.8702 17.6566 37.984 17.5386 38.136 17.5386C38.2897 17.5386 38.4018 17.6565 38.4018 17.8089C38.4018 17.9614 38.2897 18.0793 38.136 18.0793ZM38.8665 17.368H39.2643C39.2697 17.5839 39.427 17.7291 39.6584 17.7291C39.917 17.7291 40.0635 17.5731 40.0635 17.2809V15.4299H40.4685V17.2827C40.4685 17.8089 40.1648 18.112 39.662 18.112C39.19 18.112 38.8665 17.818 38.8665 17.3679V17.368ZM40.9983 17.3444H41.3998C41.4341 17.593 41.6764 17.7508 42.0254 17.7508C42.3509 17.7508 42.5896 17.5821 42.5896 17.3498C42.5896 17.1503 42.4376 17.0305 42.0923 16.9488L41.7559 16.8672C41.2839 16.7564 41.0689 16.5278 41.0689 16.1431C41.0689 15.6768 41.4486 15.3664 42.0181 15.3664C42.5479 15.3664 42.9349 15.6767 42.9584 16.1177H42.5642C42.5262 15.8764 42.3165 15.7257 42.0127 15.7257C41.6927 15.7257 41.4794 15.88 41.4794 16.1158C41.4794 16.3027 41.6167 16.4099 41.9567 16.4897L42.2441 16.5604C42.7794 16.6857 43 16.9035 43 17.2972C43 17.7981 42.6131 18.112 41.9947 18.112C41.4161 18.112 41.0272 17.8125 40.9983 17.3444V17.3444Z" fill="white"/>
</svg>
