<svg width="10" height="10" viewBox="0 0 10 10" fill="currentColor" xmlns="http://www.w3.org/2000/svg">
<path d="M9.16015 4.48047L8.87109 1.42773C8.85644 1.26953 8.73046 1.14453 8.57226 1.12891L5.51953 0.839844H5.51562C5.48437 0.839844 5.45995 0.849609 5.4414 0.868164L0.868159 5.44141C0.859105 5.45044 0.851923 5.46117 0.847023 5.47299C0.842122 5.4848 0.8396 5.49746 0.8396 5.51025C0.8396 5.52304 0.842122 5.53571 0.847023 5.54752C0.851923 5.55934 0.859105 5.57007 0.868159 5.5791L4.42089 9.13184C4.43945 9.15039 4.46386 9.16016 4.49023 9.16016C4.5166 9.16016 4.54101 9.15039 4.55956 9.13184L9.1328 4.55859C9.15234 4.53809 9.1621 4.50977 9.16015 4.48047ZM6.82617 3.7793C6.48144 3.7793 6.20117 3.49902 6.20117 3.1543C6.20117 2.80957 6.48144 2.5293 6.82617 2.5293C7.17089 2.5293 7.45116 2.80957 7.45116 3.1543C7.45116 3.49902 7.17089 3.7793 6.82617 3.7793Z" fill="white"/>
</svg>
