<svg width="95" height="12" viewBox="0 0 95 12" fill="none" xmlns="http://www.w3.org/2000/svg">
<path d="M9.80931 0C7.19347 0 5.55843 1.32169 4.90456 3.96506C5.88555 2.64319 7.03 2.14762 8.33792 2.47819C9.084 2.66663 9.61745 3.21375 10.2079 3.81938C11.1696 4.80562 12.2826 5.9475 14.7139 5.9475C17.3297 5.9475 18.9646 4.62581 19.6184 1.98244C18.6376 3.30431 17.4932 3.79988 16.1853 3.46931C15.439 3.28087 14.9057 2.73375 14.3153 2.12813C13.3534 1.14188 12.2405 0 9.80931 0ZM4.90456 5.9475C2.28891 5.9475 0.653867 7.26919 0 9.91256C0.980986 8.59069 2.12525 8.09513 3.43317 8.42569C4.17944 8.61413 4.71289 9.16125 5.30311 9.76669C6.26499 10.7533 7.37809 11.8948 9.80931 11.8948C12.425 11.8948 14.0598 10.5733 14.7139 7.92994C13.7329 9.25181 12.5884 9.74737 11.2807 9.41681C10.5344 9.22837 10.001 8.68125 9.41057 8.07562C8.44888 7.08938 7.33578 5.9475 4.90456 5.9475Z" fill="url(#paint0_linear_68_465)"/>
<path d="M29.4262 5.01188H27.7144V8.36025C27.7144 9.25313 28.2942 9.23925 29.4262 9.18338V10.5366C27.1345 10.8156 26.2233 10.1739 26.2233 8.36025V5.01206H24.9532V3.56119H26.2233V1.68731L27.7144 1.24106V3.56119H29.4262V5.01206V5.01188ZM35.9519 3.56119H37.443V10.5366H35.9519V9.53213C35.4274 10.2716 34.6128 10.7181 33.5361 10.7181C31.6584 10.7181 30.0983 9.11363 30.0983 7.04888C30.0983 4.97025 31.6584 3.37988 33.5359 3.37988C34.6128 3.37988 35.4274 3.82613 35.9519 4.55175V3.56119ZM33.7706 9.28106C35.013 9.28106 35.9519 8.34638 35.9519 7.04888C35.9519 5.75138 35.013 4.81669 33.7706 4.81669C32.5282 4.81669 31.5893 5.75138 31.5893 7.04888C31.5893 8.34638 32.5282 9.28106 33.7706 9.28106ZM39.928 2.51475C39.4033 2.51475 38.9754 2.0685 38.9754 1.55231C38.9759 1.29716 39.0764 1.0526 39.2549 0.872182C39.4335 0.691762 39.6755 0.590184 39.928 0.589688C40.1805 0.590184 40.4225 0.691762 40.601 0.872182C40.7796 1.0526 40.8801 1.29716 40.8806 1.55231C40.8806 2.0685 40.4525 2.51475 39.928 2.51475ZM39.1825 10.5366V3.56119H40.6733V10.5366H39.1825ZM42.3991 10.5366V0.352501H43.8902V10.5366H42.3991ZM53.5679 3.56119H55.1417L52.9742 10.5366H51.5108L50.075 5.83519L48.6255 10.5366H47.1621L44.9945 3.56119H46.5683L47.9076 8.37431L49.3571 3.56119H50.7792L52.2149 8.37431L53.5679 3.56119ZM56.9916 2.51494C56.4671 2.51494 56.039 2.0685 56.039 1.55231C56.0395 1.29716 56.14 1.0526 56.3186 0.872182C56.4971 0.691762 56.7391 0.590184 56.9916 0.589688C57.2441 0.590184 57.4861 0.691762 57.6647 0.872182C57.8432 1.0526 57.9437 1.29716 57.9442 1.55231C57.9442 2.0685 57.5162 2.51475 56.9916 2.51475V2.51494ZM56.2461 10.5366V3.56119H57.7372V10.5366H56.2461ZM63.0937 3.37969C64.6399 3.37969 65.7444 4.44 65.7444 6.25369V10.5366H64.2534V6.40706C64.2534 5.34694 63.6459 4.78894 62.7072 4.78894C61.727 4.78894 60.9538 5.37469 60.9538 6.79781V10.5366H59.4627V3.56119H60.9538V4.45406C61.4095 3.72844 62.1548 3.37969 63.0937 3.37969ZM72.8128 0.771001H74.3039V10.5366H72.8128V9.53213C72.2883 10.2716 71.4738 10.7181 70.397 10.7181C68.5193 10.7181 66.9592 9.11363 66.9592 7.04888C66.9592 4.97025 68.5193 3.37988 70.3968 3.37988C71.4738 3.37988 72.2883 3.82613 72.8128 4.55175V0.771001ZM70.6316 9.28106C71.874 9.28106 72.8128 8.34638 72.8128 7.04888C72.8128 5.75138 71.874 4.81669 70.6316 4.81669C69.3891 4.81669 68.4503 5.75138 68.4503 7.04888C68.4503 8.34638 69.3891 9.28106 70.6316 9.28106ZM79.3014 10.7181C77.2168 10.7181 75.6567 9.11363 75.6567 7.04888C75.6567 4.97025 77.2168 3.37988 79.3014 3.37988C80.6544 3.37988 81.8278 4.09125 82.3802 5.1795L81.0962 5.93288C80.7925 5.27719 80.116 4.8585 79.2877 4.8585C78.0727 4.8585 77.1478 5.79338 77.1478 7.04888C77.1478 8.30438 78.0727 9.23925 79.2877 9.23925C80.116 9.23925 80.7925 8.80669 81.1239 8.16488L82.4079 8.90438C81.8278 10.0065 80.6544 10.7181 79.3014 10.7181ZM84.865 5.48644C84.865 6.75581 88.5788 5.98856 88.5788 8.5695C88.5788 9.9645 87.3777 10.7181 85.8867 10.7181C84.5062 10.7181 83.5122 10.0901 83.0704 9.08569L84.3544 8.33231C84.5752 8.96025 85.1274 9.33675 85.8867 9.33675C86.5494 9.33675 87.0602 9.11363 87.0602 8.55562C87.0602 7.314 83.3465 8.0115 83.3465 5.51438C83.3465 4.20281 84.4648 3.37988 85.8729 3.37988C87.005 3.37988 87.9436 3.90994 88.427 4.83075L87.1708 5.54213C86.9222 4.99819 86.439 4.74713 85.8729 4.74713C85.3345 4.74713 84.865 4.98413 84.865 5.48644ZM91.2295 5.48644C91.2295 6.75581 94.9432 5.98856 94.9432 8.5695C94.9432 9.9645 93.7422 10.7181 92.2511 10.7181C90.8706 10.7181 89.8765 10.0901 89.4347 9.08569L90.7187 8.33231C90.9395 8.96025 91.4919 9.33675 92.2511 9.33675C92.9137 9.33675 93.4245 9.11363 93.4245 8.55562C93.4245 7.314 89.711 8.0115 89.711 5.51438C89.711 4.20281 90.8291 3.37988 92.2374 3.37988C93.3692 3.37988 94.3081 3.90994 94.7914 4.83075L93.5351 5.54213C93.2865 4.99819 92.8033 4.74713 92.2374 4.74713C91.6989 4.74713 91.2295 4.98413 91.2295 5.48644Z" fill="white"/>
<defs>
<linearGradient id="paint0_linear_68_465" x1="-0.545" y1="3.80634" x2="16.4867" y2="13.5243" gradientUnits="userSpaceOnUse">
<stop stop-color="#2298BD"/>
<stop offset="1" stop-color="#0ED7B5"/>
</linearGradient>
</defs>
</svg>
