<svg width="49" height="12" viewBox="0 0 49 12" fill="none" xmlns="http://www.w3.org/2000/svg">
<path d="M24.4445 3.25002C22.5311 3.25002 21.1515 4.48752 21.1515 6.34371C21.1515 8.19999 22.7044 9.43748 24.6179 9.43748C25.7739 9.43748 26.793 8.98373 27.4239 8.21888L26.098 7.45924C25.7479 7.83906 25.2158 8.06076 24.6178 8.06076C23.7877 8.06076 23.0823 7.63112 22.8205 6.94361H27.6769C27.7151 6.75105 27.7375 6.55165 27.7375 6.342C27.7375 4.48752 26.358 3.24993 24.4445 3.24993V3.25002ZM22.8051 5.74219C23.0217 5.05639 23.6145 4.62494 24.4429 4.62494C25.2731 4.62494 25.8659 5.05639 26.0807 5.74219H22.8051ZM43.1074 3.24993C41.194 3.24993 39.8143 4.48752 39.8143 6.34371C39.8143 8.19999 41.3672 9.43748 43.2807 9.43748C44.4367 9.43748 45.4557 8.98373 46.0867 8.21888L44.7607 7.45924C44.4107 7.83906 43.8786 8.06076 43.2807 8.06076C42.4505 8.06076 41.745 7.63112 41.4834 6.94361H46.3395C46.3776 6.75105 46.4001 6.55165 46.4001 6.342C46.4001 4.48752 45.0206 3.24993 43.1072 3.24993H43.1074ZM41.4695 5.74219C41.6862 5.05639 42.2789 4.62494 43.1074 4.62494C43.9375 4.62494 44.5303 5.05639 44.7451 5.74219H41.4695ZM34.7049 6.34371C34.7049 7.37496 35.3844 8.06247 36.4381 8.06247C37.1521 8.06247 37.6877 7.74112 37.9633 7.21685L39.2944 7.97829C38.7432 8.8892 37.7103 9.43748 36.4381 9.43748C34.523 9.43748 33.1451 8.1999 33.1451 6.34371C33.1451 4.48752 34.5247 3.25002 36.4381 3.25002C37.7103 3.25002 38.7415 3.7983 39.2944 4.70922L37.9633 5.47066C37.6877 4.94639 37.1521 4.62504 36.4381 4.62504C35.3861 4.62504 34.7049 5.31245 34.7049 6.3438V6.34371ZM49 1.35938V9.26561H47.4401V1.35938H49ZM6.40407 0.5L12.808 11.5H0L6.40407 0.5ZM22.415 1.35938L17.6124 9.60936L12.8098 1.35938H14.6106L17.6124 6.51568L20.6143 1.35938H22.415ZM32.6251 3.4219V5.08733C32.4518 5.0375 32.2681 5.00315 32.0705 5.00315C31.0635 5.00315 30.3373 5.69065 30.3373 6.72191V9.26561H28.7775V3.4219H30.3373V5.00305C30.3373 4.12991 31.3616 3.4219 32.6251 3.4219Z" fill="white"/>
</svg>
